<?xml version="1.0" standalone="no"?>
<!DOCTYPE svg PUBLIC "-//W3C//DTD SVG 20010904//EN"
 "http://www.w3.org/TR/2001/REC-SVG-20010904/DTD/svg10.dtd">
<svg version="1.0" xmlns="http://www.w3.org/2000/svg"
 width="118.000000pt" height="118.000000pt" viewBox="0 0 118.000000 118.000000"
 preserveAspectRatio="xMidYMid meet">
<metadata>
Created by potrace 1.11, written by Peter Selinger 2001-2013
</metadata>
<g transform="translate(0.000000,118.000000) scale(0.100000,-0.100000)"
fill="#000000" stroke="none">
<path d="M18 1033 c41 -107 275 -700 287 -728 7 -16 28 -69 46 -117 l34 -88
67 0 68 0 -19 48 c-11 26 -67 169 -125 317 -59 149 -111 279 -116 290 -6 11
-16 38 -24 60 -8 22 -23 63 -34 91 l-21 52 81 -2 81 -1 163 -410 c89 -226 165
-418 167 -427 4 -15 16 -18 64 -18 l58 0 170 431 c94 238 180 458 192 490 l23
59 -590 0 -590 0 18 -47z m960 -127 c-11 -28 -26 -67 -33 -86 -7 -19 -52 -134
-100 -255 -48 -121 -92 -231 -97 -245 l-10 -25 -15 35 c-24 57 -235 593 -240
611 -4 15 21 16 256 16 l260 0 -21 -51z"/>
</g>
</svg>
